<svg clip-rule="evenodd" fill-rule="evenodd" stroke-linejoin="round" stroke-miterlimit="2" viewBox="0 0 387.61 387.61" xmlns="http://www.w3.org/2000/svg" width="2500" height="2500"><g fill-rule="nonzero"><path d="M0 0h387.61v387.61H0z" fill="#fe660b" stroke-width=".155"/><g fill="#fff"><path d="M241.372 262.05v-97.812c0-22.224-18.011-40.242-40.233-40.242H88.043c-.873 0-1.578.702-1.578 1.565v136.488a1.57 1.57 0 0 0 1.578 1.562h30.213a1.58 1.58 0 0 0 1.574-1.571V154.913a1.584 1.584 0 0 1 1.576-1.575h64.964c12.198 0 22.092 9.887 22.092 22.089v86.608c0 .863.71 1.573 1.573 1.573H239.8c.866 0 1.573-.701 1.573-1.563"/><path d="M180.367 262.04v.003c0 .86-.707 1.57-1.568 1.57H148.593a1.574 1.574 0 0 1-1.579-1.573v-82.091c.001-.864.713-1.576 1.577-1.576H178.796c.862 0 1.571.71 1.571 1.571V262.043zM301.141 262.04c0 .87-.705 1.572-1.578 1.572h-30.196a1.58 1.58 0 0 1-1.585-1.572V125.575c0-.873.713-1.578 1.585-1.578h30.198c.865 0 1.576.712 1.576 1.577v.001z"/></g></g></svg>